<svg width="20" height="20" viewBox="0 0 20 20" fill="none" xmlns="http://www.w3.org/2000/svg">
<circle cx="10" cy="10" r="10" fill="#B0BEC5"/>
<path d="M7.381 7.8235C7.381 6.264 8.66 5 10.238 5C11.708 5 12.9185 6.097 13.078 7.5075C14.196 7.89 15 8.9405 15 10.1765C15.0007 10.6872 14.8609 11.1883 14.596 11.625H15C15.0995 11.625 15.1948 11.6645 15.2652 11.7348C15.3355 11.8052 15.375 11.9005 15.375 12C15.375 12.0995 15.3355 12.1948 15.2652 12.2652C15.1948 12.3355 15.0995 12.375 15 12.375H5C4.90054 12.375 4.80516 12.3355 4.73483 12.2652C4.66451 12.1948 4.625 12.0995 4.625 12C4.625 11.9005 4.66451 11.8052 4.73483 11.7348C4.80516 11.6645 4.90054 11.625 5 11.625H5.1355C5.04586 11.3877 4.99995 11.1362 5 10.8825C5 9.7125 5.9595 8.7645 7.143 8.7645C7.28533 8.76483 7.42367 8.77817 7.558 8.8045C7.4408 8.49072 7.38085 8.15845 7.381 7.8235ZM6.5 13.125C6.40054 13.125 6.30516 13.1645 6.23483 13.2348C6.16451 13.3052 6.125 13.4005 6.125 13.5C6.125 13.5995 6.16451 13.6948 6.23483 13.7652C6.30516 13.8355 6.40054 13.875 6.5 13.875H13.5C13.5995 13.875 13.6948 13.8355 13.7652 13.7652C13.8355 13.6948 13.875 13.5995 13.875 13.5C13.875 13.4005 13.8355 13.3052 13.7652 13.2348C13.6948 13.1645 13.5995 13.125 13.5 13.125H6.5ZM8 14.625C7.90054 14.625 7.80516 14.6645 7.73483 14.7348C7.66451 14.8052 7.625 14.9005 7.625 15C7.625 15.0995 7.66451 15.1948 7.73483 15.2652C7.80516 15.3355 7.90054 15.375 8 15.375H12C12.0995 15.375 12.1948 15.3355 12.2652 15.2652C12.3355 15.1948 12.375 15.0995 12.375 15C12.375 14.9005 12.3355 14.8052 12.2652 14.7348C12.1948 14.6645 12.0995 14.625 12 14.625H8Z" fill="white"/>
</svg>
