<svg width="21" height="20" viewBox="0 0 21 20" fill="none" xmlns="http://www.w3.org/2000/svg">
<circle cx="10.5" cy="10" r="10" fill="#4361EE"/>
<g clip-path="url(#clip0_100_1242)">
<path d="M10.8846 14.1987C11.0291 14.1987 11.1677 14.2561 11.2699 14.3583C11.372 14.4605 11.4295 14.5991 11.4295 14.7436V15.2885C11.4295 15.433 11.372 15.5716 11.2699 15.6738C11.1677 15.7759 11.0291 15.8333 10.8846 15.8333C10.7401 15.8333 10.6015 15.7759 10.4993 15.6738C10.3971 15.5716 10.3397 15.433 10.3397 15.2885V14.7436C10.3397 14.5991 10.3971 14.4605 10.4993 14.3583C10.6015 14.2561 10.7401 14.1987 10.8846 14.1987ZM12.5192 13.109C12.6527 13.109 12.7815 13.158 12.8812 13.2467C12.9809 13.3354 13.0446 13.4576 13.0603 13.5901L13.0641 13.6539V14.1987C13.0639 14.3376 13.0107 14.4712 12.9154 14.5722C12.8201 14.6732 12.6898 14.7339 12.5511 14.7421C12.4125 14.7502 12.276 14.7051 12.1695 14.616C12.063 14.5268 11.9945 14.4004 11.9781 14.2625L11.9743 14.1987V13.6539C11.9743 13.5094 12.0317 13.3708 12.1339 13.2686C12.2361 13.1664 12.3747 13.109 12.5192 13.109ZM9.24996 13.109C9.39447 13.109 9.53306 13.1664 9.63524 13.2686C9.73743 13.3708 9.79483 13.5094 9.79483 13.6539V14.1987C9.79483 14.3432 9.73743 14.4818 9.63524 14.584C9.53306 14.6862 9.39447 14.7436 9.24996 14.7436C9.10545 14.7436 8.96686 14.6862 8.86468 14.584C8.7625 14.4818 8.70509 14.3432 8.70509 14.1987V13.6539C8.70509 13.5094 8.7625 13.3708 8.86468 13.2686C8.96686 13.1664 9.10545 13.109 9.24996 13.109ZM10.8846 12.0192C11.0291 12.0192 11.1677 12.0767 11.2699 12.1788C11.372 12.281 11.4295 12.4196 11.4295 12.5641V13.109C11.4295 13.2535 11.372 13.3921 11.2699 13.4943C11.1677 13.5965 11.0291 13.6539 10.8846 13.6539C10.7401 13.6539 10.6015 13.5965 10.4993 13.4943C10.3971 13.3921 10.3397 13.2535 10.3397 13.109V12.5641C10.3397 12.4196 10.3971 12.281 10.4993 12.1788C10.6015 12.0767 10.7401 12.0192 10.8846 12.0192ZM10.6121 4.93591C11.3327 4.93569 12.0362 5.15527 12.6287 5.56534C13.2213 5.97541 13.6746 6.55645 13.9282 7.23091C14.5892 7.41215 15.1765 7.79644 15.6072 8.32952C16.0379 8.86259 16.2902 9.51751 16.3286 10.2018C16.367 10.886 16.1894 11.565 15.821 12.1429C15.4525 12.7208 14.9119 13.1683 14.2753 13.4223L14.1538 13.4681V11.7468C14.1538 11.4152 14.0674 11.0894 13.903 10.8014C13.7386 10.5134 13.502 10.2733 13.2165 10.1047C12.931 9.93609 12.6065 9.84483 12.2749 9.83994C11.9434 9.83504 11.6163 9.91667 11.3259 10.0768C11.1903 10.1497 11.0386 10.1879 10.8846 10.1879C10.7305 10.1879 10.5789 10.1497 10.4432 10.0768C10.1606 9.92079 9.84302 9.8391 9.52022 9.83936C9.19741 9.83962 8.87995 9.92181 8.59758 10.0782C8.31521 10.2347 8.07716 10.4602 7.90575 10.7338C7.73434 11.0073 7.63517 11.3199 7.61753 11.6422L7.61535 11.7468V13.5994C7.04816 13.4833 6.53266 13.1897 6.14357 12.761C5.75448 12.3323 5.51201 11.7908 5.45131 11.215C5.3906 10.6393 5.51481 10.0592 5.80593 9.55875C6.09706 9.05833 6.53997 8.66362 7.07048 8.43181C7.08251 7.50046 7.46096 6.61133 8.12385 5.95701C8.78674 5.30268 9.68071 4.93584 10.6121 4.93591ZM9.24996 10.9295C9.39447 10.9295 9.53306 10.9869 9.63524 11.0891C9.73743 11.1913 9.79483 11.3299 9.79483 11.4744V12.0192C9.79483 12.1638 9.73743 12.3023 9.63524 12.4045C9.53306 12.5067 9.39447 12.5641 9.24996 12.5641C9.10545 12.5641 8.96686 12.5067 8.86468 12.4045C8.7625 12.3023 8.70509 12.1638 8.70509 12.0192V11.4744C8.70509 11.3299 8.7625 11.1913 8.86468 11.0891C8.96686 10.9869 9.10545 10.9295 9.24996 10.9295ZM12.5192 10.9295C12.6527 10.9295 12.7815 10.9785 12.8812 11.0672C12.9809 11.1559 13.0446 11.2781 13.0603 11.4106L13.0641 11.4744V12.0192C13.0639 12.1581 13.0107 12.2917 12.9154 12.3927C12.8201 12.4937 12.6898 12.5544 12.5511 12.5626C12.4125 12.5707 12.276 12.5256 12.1695 12.4365C12.063 12.3473 11.9945 12.2209 11.9781 12.083L11.9743 12.0192V11.4744C11.9743 11.3299 12.0317 11.1913 12.1339 11.0891C12.2361 10.9869 12.3747 10.9295 12.5192 10.9295Z" fill="white"/>
</g>
<defs>
<clipPath id="clip0_100_1242">
<rect width="13.0769" height="13.0769" fill="white" transform="translate(4.34619 3.84619)"/>
</clipPath>
</defs>
</svg>
