<svg width="21" height="20" viewBox="0 0 21 20" fill="none" xmlns="http://www.w3.org/2000/svg">
<circle cx="10.5" cy="10" r="10" fill="#219EBC"/>
<path d="M6.91041 7.94876H11.2694C11.5076 7.95331 11.7423 7.89142 11.9472 7.77003C12.1522 7.64864 12.3193 7.47254 12.4298 7.26149C12.5402 7.05044 12.5897 6.81279 12.5727 6.57518C12.5556 6.33758 12.4727 6.10943 12.3332 5.91631C12.1938 5.7232 12.0033 5.57276 11.7831 5.48187C11.5629 5.39098 11.3217 5.36324 11.0866 5.40176C10.8515 5.44027 10.6318 5.54352 10.4522 5.69992C10.2725 5.85632 10.1399 6.05969 10.0694 6.28722M5.88477 10H13.8335C14.0717 9.99548 14.3064 10.0574 14.5113 10.1788C14.7163 10.3002 14.8834 10.4763 14.9939 10.6873C15.1043 10.8984 15.1538 11.136 15.1368 11.3736C15.1197 11.6112 15.0368 11.8394 14.8973 12.0325C14.7579 12.2256 14.5674 12.376 14.3472 12.4669C14.127 12.5578 13.8858 12.5856 13.6507 12.547C13.4156 12.5085 13.1959 12.4053 13.0163 12.2489C12.8366 12.0925 12.704 11.8891 12.6335 11.6616M6.39759 12.0513H9.2181C9.45627 12.0468 9.691 12.1087 9.89596 12.23C10.1009 12.3514 10.268 12.5275 10.3785 12.7386C10.489 12.9496 10.5384 13.1873 10.5214 13.4249C10.5043 13.6625 10.4214 13.8907 10.282 14.0838C10.1425 14.2769 9.95197 14.4273 9.73178 14.5182C9.51158 14.6091 9.27042 14.6368 9.03534 14.5983C8.80026 14.5598 8.58056 14.4566 8.40088 14.3002C8.2212 14.1438 8.08865 13.9404 8.0181 13.7129" stroke="white" stroke-linecap="round" stroke-linejoin="round"/>
</svg>
