<svg width="16" height="16" viewBox="0 0 16 16" fill="none" xmlns="http://www.w3.org/2000/svg">
<circle cx="8" cy="8" r="8" fill="#7F9599"/>
<g clip-path="url(#clip0_138_648)">
<path fill-rule="evenodd" clip-rule="evenodd" d="M8.00063 8.88232C8.07864 8.88232 8.15345 8.91331 8.20861 8.96847C8.26376 9.02363 8.29475 9.09844 8.29475 9.17644V10.0247L9.02926 9.60076C9.06272 9.58114 9.09974 9.56833 9.13817 9.56308C9.1766 9.55783 9.21569 9.56022 9.25319 9.57014C9.29069 9.58005 9.32585 9.59729 9.35667 9.62085C9.38748 9.64441 9.41333 9.67383 9.43272 9.70742C9.45212 9.74102 9.46467 9.77811 9.46967 9.81658C9.47467 9.85504 9.47202 9.89411 9.46185 9.93155C9.45169 9.96898 9.43422 10.004 9.41046 10.0347C9.38669 10.0653 9.3571 10.091 9.32338 10.1102L8.58887 10.5341L9.32456 10.9588C9.35803 10.9781 9.38737 11.0038 9.41091 11.0345C9.43444 11.0651 9.45171 11.1001 9.46173 11.1374C9.47174 11.1748 9.4743 11.2137 9.46927 11.252C9.46424 11.2903 9.45171 11.3273 9.4324 11.3608C9.41309 11.3942 9.38737 11.4236 9.35672 11.4471C9.32607 11.4706 9.29108 11.4879 9.25375 11.4979C9.21643 11.5079 9.1775 11.5105 9.13918 11.5055C9.10086 11.5004 9.06391 11.4879 9.03044 11.4686L8.29436 11.0431V11.9215C8.29436 11.9995 8.26337 12.0744 8.20821 12.1295C8.15306 12.1847 8.07825 12.2157 8.00024 12.2157C7.92224 12.2157 7.84743 12.1847 7.79227 12.1295C7.73711 12.0744 7.70612 11.9995 7.70612 11.9215V11.0435L6.97044 11.4682C6.90292 11.5066 6.82296 11.5167 6.74801 11.4964C6.67305 11.476 6.60919 11.4268 6.57036 11.3596C6.53152 11.2923 6.52087 11.2124 6.54072 11.1373C6.56057 11.0623 6.60932 10.9981 6.67632 10.9588L7.41201 10.5341L6.6775 10.1102C6.60989 10.0712 6.56055 10.0069 6.54033 9.93152C6.5201 9.85614 6.53065 9.77581 6.56965 9.70821C6.60866 9.6406 6.67292 9.59126 6.7483 9.57104C6.82368 9.55081 6.90401 9.56136 6.97161 9.60036L7.70612 10.0247V9.17644C7.70612 9.09844 7.73711 9.02363 7.79227 8.96847C7.84743 8.91331 7.92224 8.88232 8.00024 8.88232" fill="white"/>
<path d="M6.26057 10.5341C6.10045 10.4011 5.99253 10.2157 5.9559 10.0107C5.91926 9.80581 5.95627 9.59452 6.06037 9.41423C6.16448 9.23395 6.32898 9.09628 6.52479 9.02557C6.7206 8.95486 6.9351 8.95566 7.13038 9.02784C7.16515 8.82225 7.27159 8.63562 7.43085 8.50103C7.5901 8.36645 7.79187 8.29261 8.00038 8.29261C8.20888 8.29261 8.41065 8.36645 8.56991 8.50103C8.72916 8.63562 8.83561 8.82225 8.87038 9.02784C9.06565 8.95566 9.28016 8.95486 9.47597 9.02557C9.67178 9.09628 9.83628 9.23395 9.94038 9.41423C10.0445 9.59452 10.0815 9.80581 10.0449 10.0107C10.0082 10.2157 9.9003 10.4011 9.74018 10.5341L9.56881 10.7451L9.91744 10.7329C11.0433 10.6161 11.9218 9.6745 11.9218 8.53058C11.9218 7.56117 11.2916 6.73725 10.4139 6.43725C10.2892 5.33097 9.3394 4.47058 8.18685 4.47058C6.9492 4.47058 5.94606 5.46195 5.94606 6.68509C5.94606 6.95568 5.99508 7.2145 6.08489 7.4545C5.97763 7.43376 5.86864 7.42326 5.7594 7.42313C4.83116 7.42352 4.07861 8.16705 4.07861 9.08431C4.07861 10.0016 4.83116 10.7451 5.7594 10.7451H6.43155L6.26057 10.5341Z" fill="white"/>
</g>
<defs>
<clipPath id="clip0_138_648">
<rect width="9.41177" height="9.41177" fill="white" transform="translate(3.29443 3.29407)"/>
</clipPath>
</defs>
</svg>
