<svg width="20" height="20" viewBox="0 0 20 20" fill="none" xmlns="http://www.w3.org/2000/svg">
<circle cx="10" cy="10" r="10" fill="#FB5607"/>
<g clip-path="url(#clip0_100_1250)">
<path d="M10.577 11.3492V7.16384H9.0385V11.3485C8.49889 11.6285 8.12543 12.1869 8.12543 12.8369C8.13206 13.2788 8.31225 13.7004 8.62709 14.0106C8.94193 14.3208 9.36615 14.4947 9.80812 14.4947C10.2501 14.4948 10.6744 14.321 10.9893 14.0109C11.3042 13.7008 11.4845 13.2792 11.4912 12.8373C11.4912 12.1873 11.1181 11.6288 10.5773 11.3496L10.577 11.3492ZM11.7308 5.86461C11.7308 4.80461 10.8677 3.94153 9.80773 3.94153C8.74773 3.94153 7.88466 4.80499 7.88466 5.86461V10.7596C7.59627 11.0232 7.36608 11.3441 7.20879 11.7017C7.05149 12.0593 6.97057 12.4458 6.97119 12.8365C6.97119 14.4004 8.24427 15.6738 9.80812 15.6738C11.372 15.6738 12.6447 14.4008 12.6447 12.8365C12.6447 12.0342 12.307 11.2865 11.7312 10.7588V5.86537L11.7308 5.86461ZM11.875 12.8377C11.8742 13.3856 11.6561 13.9108 11.2686 14.2982C10.881 14.6855 10.3557 14.9033 9.80773 14.9038C9.25987 14.9031 8.73465 14.6852 8.34726 14.2978C7.95986 13.9104 7.74191 13.3852 7.74119 12.8373C7.74119 12.1469 8.08581 11.5131 8.65504 11.1304V5.86537C8.65504 5.22961 9.17158 4.71153 9.80773 4.71153C10.4439 4.71153 10.9616 5.22922 10.9616 5.86537V11.1308C11.2426 11.318 11.473 11.5717 11.6324 11.8694C11.7918 12.1671 11.8751 12.5 11.875 12.8377ZM12.3404 7.16384L14.0712 8.16307V6.16537L12.3404 7.16384Z" fill="white"/>
</g>
<defs>
<clipPath id="clip0_100_1250">
<rect width="12.3077" height="12.3077" fill="white" transform="translate(3.84619 3.84619)"/>
</clipPath>
</defs>
</svg>
