<svg width="32" height="32" viewBox="0 0 32 32" fill="none" xmlns="http://www.w3.org/2000/svg">
<circle cx="16" cy="16" r="16" fill="#086eeb"/>
<path d="M15.855 6.16764C15.6775 5.94412 15.3225 5.94412 15.145 6.16764C13.6361 8.13465 8 15.8238 8 19.4449C8 23.6024 11.3728 27 15.5 27C19.6272 27 23 23.6024 23 19.4449C23 15.8238 17.3639 8.13465 15.855 6.16764ZM18.0296 24.3624C17.9408 24.4071 17.8521 24.4071 17.7633 24.4071C17.497 24.4071 17.2308 24.2283 17.142 24.0048C17.0089 23.6472 17.1864 23.2895 17.497 23.1107C20.1154 22.0378 19.8935 18.8191 19.8491 18.7743C19.8047 18.4167 20.071 18.0591 20.4704 18.0591C20.8254 18.0144 21.1805 18.2826 21.1805 18.6849C21.358 20.1155 20.8254 23.2001 18.0296 24.3624Z" fill="#ffffff"/>
</svg>
