<svg width="16" height="16" viewBox="0 0 16 16" fill="none" xmlns="http://www.w3.org/2000/svg">
<g clip-path="url(#clip0_128_926)">
<path d="M7.99989 12.6667C8.1767 12.6667 8.34627 12.7369 8.4713 12.8619C8.59632 12.987 8.66656 13.1565 8.66656 13.3333V14C8.66656 14.1768 8.59632 14.3464 8.4713 14.4714C8.34627 14.5964 8.1767 14.6667 7.99989 14.6667C7.82308 14.6667 7.65351 14.5964 7.52849 14.4714C7.40347 14.3464 7.33323 14.1768 7.33323 14V13.3333C7.33323 13.1565 7.40347 12.987 7.52849 12.8619C7.65351 12.7369 7.82308 12.6667 7.99989 12.6667ZM9.99989 11.3333C10.1632 11.3334 10.3208 11.3933 10.4428 11.5018C10.5648 11.6103 10.6428 11.7598 10.6619 11.922L10.6666 12V12.6667C10.6664 12.8366 10.6013 13 10.4847 13.1236C10.368 13.2471 10.2086 13.3215 10.039 13.3315C9.86934 13.3414 9.70231 13.2862 9.57201 13.1772C9.4417 13.0681 9.35796 12.9134 9.33789 12.7447L9.33323 12.6667V12C9.33323 11.8232 9.40347 11.6536 9.52849 11.5286C9.65351 11.4036 9.82308 11.3333 9.99989 11.3333ZM5.99989 11.3333C6.1767 11.3333 6.34627 11.4036 6.4713 11.5286C6.59632 11.6536 6.66656 11.8232 6.66656 12V12.6667C6.66656 12.8435 6.59632 13.0131 6.4713 13.1381C6.34627 13.2631 6.1767 13.3333 5.99989 13.3333C5.82308 13.3333 5.65351 13.2631 5.52849 13.1381C5.40347 13.0131 5.33323 12.8435 5.33323 12.6667V12C5.33323 11.8232 5.40347 11.6536 5.52849 11.5286C5.65351 11.4036 5.82308 11.3333 5.99989 11.3333ZM7.99989 10C8.1767 10 8.34627 10.0702 8.4713 10.1953C8.59632 10.3203 8.66656 10.4899 8.66656 10.6667V11.3333C8.66656 11.5102 8.59632 11.6797 8.4713 11.8047C8.34627 11.9298 8.1767 12 7.99989 12C7.82308 12 7.65351 11.9298 7.52849 11.8047C7.40347 11.6797 7.33323 11.5102 7.33323 11.3333V10.6667C7.33323 10.4899 7.40347 10.3203 7.52849 10.1953C7.65351 10.0702 7.82308 10 7.99989 10ZM7.66656 1.33334C8.54821 1.33307 9.40896 1.60173 10.1339 2.10346C10.8589 2.6052 11.4136 3.31612 11.7239 4.14134C12.5326 4.36309 13.2511 4.83328 13.7781 5.48552C14.3051 6.13775 14.6139 6.93906 14.6608 7.77627C14.7078 8.61348 14.4905 9.44428 14.0397 10.1513C13.5889 10.8584 12.9274 11.4059 12.1486 11.7167L11.9999 11.7727V9.66668C11.9999 9.26098 11.8941 8.86229 11.693 8.50996C11.4919 8.15762 11.2024 7.8638 10.8531 7.6575C10.5037 7.45121 10.1067 7.33955 9.70102 7.33356C9.29536 7.32757 8.89516 7.42745 8.53989 7.62334C8.3739 7.71262 8.18837 7.75935 7.99989 7.75935C7.81142 7.75935 7.62588 7.71262 7.45989 7.62334C7.1141 7.43249 6.72552 7.33254 6.33056 7.33286C5.93559 7.33317 5.54717 7.43374 5.20168 7.62513C4.85619 7.81653 4.56494 8.0925 4.35521 8.42718C4.14548 8.76186 4.02414 9.1443 4.00256 9.53868L3.99989 9.66668V11.9333C3.30592 11.7913 2.6752 11.432 2.19914 10.9075C1.72307 10.383 1.4264 9.72049 1.35213 9.01605C1.27785 8.3116 1.42982 7.6018 1.78602 6.98952C2.14222 6.37724 2.68413 5.8943 3.33323 5.61068C3.34795 4.47114 3.81099 3.38327 4.62206 2.58268C5.43313 1.7821 6.52693 1.33325 7.66656 1.33334ZM5.99989 8.66668C6.1767 8.66668 6.34627 8.73691 6.4713 8.86194C6.59632 8.98696 6.66656 9.15653 6.66656 9.33334V10C6.66656 10.1768 6.59632 10.3464 6.4713 10.4714C6.34627 10.5964 6.1767 10.6667 5.99989 10.6667C5.82308 10.6667 5.65351 10.5964 5.52849 10.4714C5.40347 10.3464 5.33323 10.1768 5.33323 10V9.33334C5.33323 9.15653 5.40347 8.98696 5.52849 8.86194C5.65351 8.73691 5.82308 8.66668 5.99989 8.66668ZM9.99989 8.66668C10.1632 8.6667 10.3208 8.72665 10.4428 8.83515C10.5648 8.94366 10.6428 9.09318 10.6619 9.25534L10.6666 9.33334V10C10.6664 10.1699 10.6013 10.3334 10.4847 10.4569C10.368 10.5805 10.2086 10.6548 10.039 10.6648C9.86934 10.6747 9.70231 10.6196 9.57201 10.5105C9.4417 10.4014 9.35796 10.2467 9.33789 10.078L9.33323 10V9.33334C9.33323 9.15653 9.40347 8.98696 9.52849 8.86194C9.65351 8.73691 9.82308 8.66668 9.99989 8.66668Z" fill="white"/>
</g>
<defs>
<clipPath id="clip0_128_926">
<rect width="16" height="16" fill="white"/>
</clipPath>
</defs>
</svg>
