<svg width="14" height="14" viewBox="0 0 14 14" fill="none" xmlns="http://www.w3.org/2000/svg">
<g clip-path="url(#clip0_138_391)">
<path d="M6.99988 11.0834C7.15459 11.0834 7.30296 11.1448 7.41236 11.2542C7.52175 11.3636 7.58321 11.512 7.58321 11.6667V12.25C7.58321 12.4047 7.52175 12.5531 7.41236 12.6625C7.30296 12.7719 7.15459 12.8334 6.99988 12.8334C6.84517 12.8334 6.69679 12.7719 6.5874 12.6625C6.478 12.5531 6.41654 12.4047 6.41654 12.25V11.6667C6.41654 11.512 6.478 11.3636 6.5874 11.2542C6.69679 11.1448 6.84517 11.0834 6.99988 11.0834ZM8.74988 9.91669C8.89276 9.91671 9.03066 9.96916 9.13743 10.0641C9.2442 10.159 9.31241 10.2899 9.32913 10.4318L9.33321 10.5V11.0834C9.33305 11.232 9.27611 11.375 9.17405 11.4832C9.07198 11.5913 8.93249 11.6563 8.78406 11.665C8.63564 11.6737 8.48949 11.6255 8.37547 11.53C8.26146 11.4346 8.18819 11.2992 8.17063 11.1516L8.16654 11.0834V10.5C8.16654 10.3453 8.228 10.1969 8.3374 10.0875C8.44679 9.97814 8.59517 9.91669 8.74988 9.91669ZM5.24988 9.91669C5.40459 9.91669 5.55296 9.97814 5.66236 10.0875C5.77175 10.1969 5.83321 10.3453 5.83321 10.5V11.0834C5.83321 11.2381 5.77175 11.3864 5.66236 11.4958C5.55296 11.6052 5.40459 11.6667 5.24988 11.6667C5.09517 11.6667 4.94679 11.6052 4.8374 11.4958C4.728 11.3864 4.66654 11.2381 4.66654 11.0834V10.5C4.66654 10.3453 4.728 10.1969 4.8374 10.0875C4.94679 9.97814 5.09517 9.91669 5.24988 9.91669ZM6.99988 8.75002C7.15459 8.75002 7.30296 8.81148 7.41236 8.92087C7.52175 9.03027 7.58321 9.17864 7.58321 9.33335V9.91669C7.58321 10.0714 7.52175 10.2198 7.41236 10.3292C7.30296 10.4386 7.15459 10.5 6.99988 10.5C6.84517 10.5 6.69679 10.4386 6.5874 10.3292C6.478 10.2198 6.41654 10.0714 6.41654 9.91669V9.33335C6.41654 9.17864 6.478 9.03027 6.5874 8.92087C6.69679 8.81148 6.84517 8.75002 6.99988 8.75002ZM6.70821 1.16669C7.47965 1.16645 8.23281 1.40153 8.86715 1.84054C9.50149 2.27956 9.98683 2.90162 10.2584 3.62369C10.966 3.81771 11.5947 4.22913 12.0558 4.79984C12.517 5.37054 12.7871 6.07169 12.8282 6.80425C12.8693 7.53681 12.6791 8.26376 12.2847 8.88242C11.8903 9.50109 11.3114 9.98021 10.63 10.2521L10.4999 10.3011V8.45835C10.4999 8.10337 10.4073 7.75452 10.2314 7.44622C10.0554 7.13793 9.80207 6.88084 9.49641 6.70033C9.19075 6.51982 8.8433 6.42212 8.48836 6.41688C8.13341 6.41164 7.78324 6.49903 7.47238 6.67044C7.32714 6.74856 7.16479 6.78944 6.99988 6.78944C6.83496 6.78944 6.67262 6.74856 6.52738 6.67044C6.22481 6.50344 5.8848 6.41599 5.53921 6.41626C5.19361 6.41653 4.85374 6.50453 4.55144 6.672C4.24914 6.83948 3.99429 7.08095 3.81078 7.37379C3.62727 7.66664 3.5211 8.00128 3.50221 8.34635L3.49988 8.45835V10.4417C2.89265 10.3174 2.34077 10.003 1.92421 9.54408C1.50766 9.08512 1.24807 8.50544 1.18308 7.88905C1.11809 7.27266 1.25106 6.65159 1.56274 6.11584C1.87441 5.5801 2.34859 5.15752 2.91654 4.90935C2.92943 3.91226 3.33459 2.96037 4.04427 2.25986C4.75396 1.55935 5.71103 1.1666 6.70821 1.16669ZM5.24988 7.58335C5.40459 7.58335 5.55296 7.64481 5.66236 7.75421C5.77175 7.8636 5.83321 8.01198 5.83321 8.16669V8.75002C5.83321 8.90473 5.77175 9.0531 5.66236 9.1625C5.55296 9.2719 5.40459 9.33335 5.24988 9.33335C5.09517 9.33335 4.94679 9.2719 4.8374 9.1625C4.728 9.0531 4.66654 8.90473 4.66654 8.75002V8.16669C4.66654 8.01198 4.728 7.8636 4.8374 7.75421C4.94679 7.64481 5.09517 7.58335 5.24988 7.58335ZM8.74988 7.58335C8.89276 7.58337 9.03066 7.63583 9.13743 7.73077C9.2442 7.82571 9.31241 7.95654 9.32913 8.09844L9.33321 8.16669V8.75002C9.33305 8.8987 9.27611 9.04171 9.17405 9.14982C9.07198 9.25793 8.93249 9.32299 8.78406 9.3317C8.63564 9.34042 8.48949 9.29213 8.37547 9.1967C8.26146 9.10127 8.18819 8.96591 8.17063 8.81827L8.16654 8.75002V8.16669C8.16654 8.01198 8.228 7.8636 8.3374 7.75421C8.44679 7.64481 8.59517 7.58335 8.74988 7.58335Z" fill="#4361EE"/>
</g>
<defs>
<clipPath id="clip0_138_391">
<rect width="14" height="14" fill="white"/>
</clipPath>
</defs>
</svg>
