<svg width="14" height="14" viewBox="0 0 14 14" fill="none" xmlns="http://www.w3.org/2000/svg">
<path d="M3.94434 4.46077C3.94434 2.64135 5.4365 1.16669 7.2775 1.16669C8.9925 1.16669 10.4048 2.44652 10.5908 4.0921C11.8952 4.53835 12.8332 5.76394 12.8332 7.20594C12.834 7.8018 12.6709 8.38642 12.3618 8.89585H12.8332C12.9492 8.89585 13.0605 8.94195 13.1425 9.02399C13.2246 9.10604 13.2707 9.21732 13.2707 9.33335C13.2707 9.44939 13.2246 9.56067 13.1425 9.64271C13.0605 9.72476 12.9492 9.77085 12.8332 9.77085H1.1665C1.05047 9.77085 0.939192 9.72476 0.857145 9.64271C0.775098 9.56067 0.729004 9.44939 0.729004 9.33335C0.729004 9.21732 0.775098 9.10604 0.857145 9.02399C0.939192 8.94195 1.05047 8.89585 1.1665 8.89585H1.32459C1.22001 8.61902 1.16645 8.32553 1.1665 8.0296C1.1665 6.6646 2.28592 5.5586 3.66667 5.5586C3.83273 5.55899 3.99412 5.57455 4.15084 5.60527C4.0141 5.23919 3.94416 4.85155 3.94434 4.46077ZM2.9165 10.6459C2.80047 10.6459 2.68919 10.6919 2.60714 10.774C2.5251 10.856 2.479 10.9673 2.479 11.0834C2.479 11.1994 2.5251 11.3107 2.60714 11.3927C2.68919 11.4748 2.80047 11.5209 2.9165 11.5209H11.0832C11.1992 11.5209 11.3105 11.4748 11.3925 11.3927C11.4746 11.3107 11.5207 11.1994 11.5207 11.0834C11.5207 10.9673 11.4746 10.856 11.3925 10.774C11.3105 10.6919 11.1992 10.6459 11.0832 10.6459H2.9165ZM4.6665 12.3959C4.55047 12.3959 4.43919 12.4419 4.35714 12.524C4.2751 12.606 4.229 12.7173 4.229 12.8334C4.229 12.9494 4.2751 13.0607 4.35714 13.1427C4.43919 13.2248 4.55047 13.2709 4.6665 13.2709H9.33317C9.4492 13.2709 9.56048 13.2248 9.64253 13.1427C9.72458 13.0607 9.77067 12.9494 9.77067 12.8334C9.77067 12.7173 9.72458 12.606 9.64253 12.524C9.56048 12.4419 9.4492 12.3959 9.33317 12.3959H4.6665Z" fill="#5C706C"/>
</svg>
