<svg width="16" height="16" viewBox="0 0 16 16" fill="none" xmlns="http://www.w3.org/2000/svg">
<path d="M3.33333 5.33333H9C9.30962 5.33926 9.61477 5.2588 9.88122 5.10099C10.1477 4.94318 10.3649 4.71425 10.5085 4.43989C10.6521 4.16552 10.7164 3.85657 10.6943 3.54769C10.6721 3.23881 10.5643 2.9422 10.383 2.69116C10.2017 2.44011 9.95403 2.24454 9.66778 2.12638C9.38153 2.00823 9.06802 1.97216 8.76241 2.02223C8.45681 2.0723 8.1712 2.20653 7.93762 2.40985C7.70404 2.61317 7.53172 2.87755 7.44 3.17333M2 8H12.3333C12.643 7.99408 12.9481 8.07453 13.2146 8.23234C13.481 8.39016 13.6982 8.61908 13.8418 8.89345C13.9854 9.16781 14.0498 9.47676 14.0276 9.78565C14.0054 10.0945 13.8977 10.3911 13.7164 10.6422C13.535 10.8932 13.2874 11.0888 13.0011 11.207C12.7149 11.3251 12.4014 11.3612 12.0957 11.3111C11.7901 11.261 11.5045 11.1268 11.271 10.9235C11.0374 10.7202 10.8651 10.4558 10.7733 10.16M2.66667 10.6667H6.33333C6.64295 10.6607 6.9481 10.7412 7.21455 10.899C7.481 11.0568 7.69822 11.2857 7.84183 11.5601C7.98544 11.8345 8.04978 12.1434 8.02761 12.4523C8.00545 12.7612 7.89766 13.0578 7.71635 13.3088C7.53504 13.5599 7.28736 13.7555 7.00111 13.8736C6.71486 13.9918 6.40135 14.0278 6.09575 13.9778C5.79014 13.9277 5.50453 13.7935 5.27095 13.5902C5.03737 13.3868 4.86505 13.1225 4.77333 12.8267" stroke="white" stroke-linecap="round" stroke-linejoin="round"/>
</svg>
