<svg width="10" height="16" viewBox="0 0 10 16" fill="none" xmlns="http://www.w3.org/2000/svg">
<path d="M4.68689 10.0037V4.56345H2.68715V10.0027C1.98574 10.3667 1.50031 11.0926 1.50031 11.9375C1.50893 12.5119 1.74315 13.0599 2.15239 13.4631C2.56162 13.8663 3.11303 14.0923 3.68752 14.0924C4.26201 14.0924 4.81348 13.8665 5.22281 13.4634C5.63214 13.0603 5.86648 12.5124 5.87523 11.938C5.87523 11.0931 5.3903 10.3672 4.68739 10.0042L4.68689 10.0037ZM6.18669 2.87467C6.18669 1.49685 5.06484 0.375 3.68702 0.375C2.3092 0.375 1.18735 1.49735 1.18735 2.87467V9.23734C0.812501 9.57995 0.513283 9.99702 0.308832 10.4619C0.10438 10.9267 -0.000804836 11.4292 4.6368e-06 11.937C4.6368e-06 13.9697 1.65479 15.625 3.68752 15.625C5.72025 15.625 7.37454 13.9702 7.37454 11.937C7.37454 10.8941 6.93559 9.92225 6.18719 9.23634V2.87567L6.18669 2.87467ZM6.37417 11.9385C6.37311 12.6507 6.08961 13.3334 5.58586 13.8369C5.08211 14.3404 4.39923 14.6235 3.68702 14.6241C2.97489 14.6232 2.2922 14.3399 1.78865 13.8364C1.2851 13.3328 1.0018 12.6501 1.00087 11.938C1.00087 11.0406 1.44881 10.2167 2.18872 9.71927V2.87567C2.18872 2.04928 2.86013 1.37587 3.68702 1.37587C4.51391 1.37587 5.18682 2.04878 5.18682 2.87567V9.71977C5.55212 9.96312 5.85165 10.2929 6.05879 10.6799C6.26593 11.0669 6.37426 11.4996 6.37417 11.9385ZM6.97909 4.56345L9.22879 5.86228V3.26562L6.97909 4.56345Z" fill="black"/>
</svg>
