<svg width="14" height="14" viewBox="0 0 14 14" fill="none" xmlns="http://www.w3.org/2000/svg">
<path d="M7.65625 8.53477V3.7739H5.90625V8.5339C5.29244 8.8524 4.86763 9.48765 4.86763 10.227C4.87517 10.7297 5.08014 11.2093 5.43827 11.5621C5.7964 11.9149 6.27895 12.1127 6.78169 12.1128C7.28444 12.1129 7.76703 11.9152 8.12524 11.5624C8.48345 11.2096 8.68854 10.7301 8.69619 10.2275C8.69619 9.48808 8.27182 8.85283 7.65669 8.53521L7.65625 8.53477ZM8.96875 2.29602C8.96875 1.09027 7.987 0.108521 6.78125 0.108521C5.5755 0.108521 4.59375 1.09071 4.59375 2.29602V7.86408C4.26572 8.16391 4.00387 8.52889 3.82495 8.9357C3.64603 9.3425 3.55398 9.78217 3.55469 10.2266C3.55469 12.0055 5.00282 13.454 6.78169 13.454C8.56057 13.454 10.0083 12.0059 10.0083 10.2266C10.0083 9.31396 9.62413 8.46346 8.96919 7.86321V2.2969L8.96875 2.29602ZM9.13282 10.2279C9.13189 10.8512 8.8838 11.4486 8.44296 11.8892C8.00212 12.3298 7.40452 12.5776 6.78125 12.5781C6.15806 12.5773 5.56063 12.3294 5.11996 11.8888C4.6793 11.4481 4.43138 10.8507 4.43057 10.2275C4.43057 9.44215 4.82257 8.72115 5.47007 8.28583V2.2969C5.47007 1.57371 6.05763 0.984396 6.78125 0.984396C7.50488 0.984396 8.09375 1.57327 8.09375 2.2969V8.28627C8.41343 8.49923 8.67555 8.78786 8.85682 9.12651C9.03809 9.46516 9.1329 9.84378 9.13282 10.2279ZM9.66219 3.7739L11.6309 4.91052V2.63815L9.66219 3.7739Z" fill="#FB5607"/>
</svg>
