<svg width="20" height="20" viewBox="0 0 20 20" fill="none" xmlns="http://www.w3.org/2000/svg">
<circle cx="10" cy="10" r="10" fill="#FB5607"/>
<g clip-path="url(#clip0_207_152)">
<path d="M10.577 11.3491V7.16371H9.0385V11.3483C8.49889 11.6283 8.12543 12.1868 8.12543 12.8368C8.13206 13.2787 8.31225 13.7003 8.62709 14.0105C8.94193 14.3207 9.36615 14.4946 9.80812 14.4946C10.2501 14.4947 10.6744 14.3209 10.9893 14.0108C11.3042 13.7006 11.4845 13.2791 11.4912 12.8372C11.4912 12.1872 11.1181 11.6287 10.5773 11.3495L10.577 11.3491ZM11.7308 5.86448C11.7308 4.80448 10.8677 3.94141 9.80773 3.94141C8.74773 3.94141 7.88466 4.80487 7.88466 5.86448V10.7595C7.59627 11.0231 7.36608 11.3439 7.20879 11.7016C7.05149 12.0592 6.97057 12.4457 6.97119 12.8364C6.97119 14.4003 8.24427 15.6737 9.80812 15.6737C11.372 15.6737 12.6447 14.4006 12.6447 12.8364C12.6447 12.0341 12.307 11.2864 11.7312 10.7587V5.86525L11.7308 5.86448ZM11.875 12.8376C11.8742 13.3855 11.6561 13.9107 11.2686 14.2981C10.881 14.6854 10.3557 14.9032 9.80773 14.9037C9.25987 14.903 8.73465 14.685 8.34726 14.2977C7.95986 13.9103 7.74191 13.385 7.74119 12.8372C7.74119 12.1468 8.08581 11.5129 8.65504 11.1303V5.86525C8.65504 5.22948 9.17158 4.71141 9.80773 4.71141C10.4439 4.71141 10.9616 5.2291 10.9616 5.86525V11.1306C11.2426 11.3179 11.473 11.5716 11.6324 11.8693C11.7918 12.167 11.8751 12.4999 11.875 12.8376ZM12.3404 7.16371L14.0712 8.16294V6.16525L12.3404 7.16371Z" fill="white"/>
</g>
<defs>
<clipPath id="clip0_207_152">
<rect width="12.3077" height="12.3077" fill="white" transform="translate(3.84619 3.84619)"/>
</clipPath>
</defs>
</svg>
