<svg width="14" height="14" viewBox="0 0 14 14" fill="none" xmlns="http://www.w3.org/2000/svg">
<path d="M3.12903 4.66664H7.92742C8.1896 4.67183 8.44799 4.60143 8.67361 4.46334C8.89924 4.32526 9.08317 4.12495 9.20478 3.88488C9.32638 3.64481 9.38086 3.37448 9.36209 3.1042C9.34332 2.83393 9.25205 2.57441 9.09852 2.35474C8.94499 2.13507 8.73527 1.96395 8.49288 1.86056C8.25049 1.75718 7.98502 1.72562 7.72624 1.76943C7.46746 1.81324 7.22561 1.93069 7.02782 2.1086C6.83003 2.2865 6.68412 2.51783 6.60645 2.77664M2 6.99998H10.75C11.0122 6.99479 11.2706 7.06519 11.4962 7.20328C11.7218 7.34136 11.9057 7.54168 12.0274 7.78174C12.149 8.02181 12.2034 8.29214 12.1847 8.56242C12.1659 8.83269 12.0746 9.09222 11.9211 9.31189C11.7676 9.53155 11.5578 9.70268 11.3155 9.80606C11.0731 9.90944 10.8076 9.941 10.5488 9.89719C10.29 9.85338 10.0482 9.73593 9.8504 9.55803C9.65261 9.38012 9.5067 9.14879 9.42903 8.88998M2.56452 9.33331H5.66935C5.93153 9.32813 6.18993 9.39853 6.41555 9.53661C6.64117 9.6747 6.8251 9.87501 6.94671 10.1151C7.06832 10.3551 7.12279 10.6255 7.10403 10.8958C7.08526 11.166 6.99399 11.4256 6.84046 11.6452C6.68693 11.8649 6.4772 12.036 6.23481 12.1394C5.99242 12.2428 5.72695 12.2743 5.46817 12.2305C5.2094 12.1867 4.96755 12.0693 4.76976 11.8914C4.57197 11.7135 4.42605 11.4821 4.34839 11.2233" stroke="#219EBC" stroke-linecap="round" stroke-linejoin="round"/>
</svg>
